<svg width="20.000000" height="16.000000" viewBox="0 0 20 16" fill="none" xmlns="http://www.w3.org/2000/svg" xmlns:xlink="http://www.w3.org/1999/xlink">
	<desc>
			Created with Pixso.
	</desc>
	<defs/>
	<path id="Vector" d="M18 0L2 0C0.9 0 0 0.89 0 2L0 14C0 15.1 0.9 16 2 16L18 16C19.1 16 20 15.1 20 14L20 2C20 0.89 19.1 0 18 0ZM17.6 4.25L11.06 8.34C10.41 8.75 9.59 8.75 8.93 8.34L2.4 4.25C2.29 4.19 2.21 4.11 2.14 4.02C2.07 3.93 2.02 3.83 1.99 3.71C1.96 3.6 1.95 3.49 1.97 3.37C1.99 3.26 2.03 3.15 2.09 3.05C2.15 2.96 2.23 2.87 2.33 2.81C2.42 2.74 2.53 2.69 2.64 2.67C2.75 2.65 2.87 2.65 2.98 2.67C3.09 2.69 3.2 2.74 3.29 2.81L10 7L16.7 2.81C16.79 2.74 16.9 2.69 17.01 2.67C17.12 2.65 17.24 2.65 17.35 2.67C17.46 2.69 17.57 2.74 17.66 2.81C17.76 2.87 17.84 2.96 17.9 3.05C17.96 3.15 18 3.26 18.02 3.37C18.04 3.49 18.03 3.6 18 3.71C17.97 3.83 17.92 3.93 17.85 4.02C17.78 4.11 17.7 4.19 17.6 4.25Z" fill="#4D6BB9" fill-opacity="1.000000" fill-rule="nonzero"/>
</svg>
