<svg width="24.000000" height="24.000000" viewBox="0 0 24 24" fill="none" xmlns="http://www.w3.org/2000/svg" xmlns:xlink="http://www.w3.org/1999/xlink">
	<desc>
			Created with Pixso.
	</desc>
	<defs>
		<clipPath id="clip1_72">
			<rect id="ic:round-location-on" rx="-0.500000" width="23.000000" height="23.000000" transform="translate(0.500000 0.500000)" fill="white" fill-opacity="0"/>
		</clipPath>
	</defs>
	<rect id="ic:round-location-on" rx="-0.500000" width="23.000000" height="23.000000" transform="translate(0.500000 0.500000)" fill="#FFFFFF" fill-opacity="0"/>
	<g clip-path="url(#clip1_72)">
		<path id="Vector" d="M12 2C8.13 2 5 5.12 5 9C5 13.16 9.41 18.91 11.24 21.11C11.64 21.59 12.37 21.59 12.77 21.11C14.58 18.91 19 13.16 19 9C19 5.12 15.87 2 12 2ZM12 11.5C11.33 11.5 10.7 11.23 10.23 10.76C9.76 10.29 9.5 9.66 9.5 9C9.5 8.33 9.76 7.7 10.23 7.23C10.7 6.76 11.33 6.5 12 6.5C12.66 6.5 13.29 6.76 13.76 7.23C14.23 7.7 14.5 8.33 14.5 9C14.5 9.66 14.23 10.29 13.76 10.76C13.29 11.23 12.66 11.5 12 11.5Z" fill="#4D6BB9" fill-opacity="1.000000" fill-rule="nonzero"/>
	</g>
</svg>
